#!OML:ASF X:\für Bonn\!DataBase\2005_08_12_Daniel\c3d\Daniel.ASF
:FULLY-SPECIFIED
:DEGREES
16
root -26.3861 17.1238 25.9653 -187.971 69.1328 531.138
lowerback 13.0822 -3.00733 -7.62726
upperback 4.79925 -4.66034 -2.65163
thorax -1.84628 -2.21518 2.15047
lowerneck 0.706243 5.47176 -3.71143
upperneck 7.09104 7.64007 -2.40263
head 2.05651 3.7078 -0.0165627
rclavicle -4.07509e-014 3.81667e-014
rhumerus -38.6845 -7.97682 -85.6169
rradius 22.4528
rwrist 19.1502
rhand -18.5058 18.1268
rfingers 7.12502
rthumb 7.78212 -11.71
lclavicle -4.07509e-014 3.81667e-014
lhumerus -38.8864 4.61642 90.3588
lradius 68.47
lwrist 17.5118
lhand -15.7488 -8.02496
lfingers 7.12502
lthumb 10.4425 21.6957
rfemur -22.9168 11.9561 15.43
rtibia 48.1551
rfoot -23.6064 17.6951
rtoes -12.2761
lfemur 3.16616 -4.95209 -26.1671
ltibia 30.8946
lfoot -34.3183 -2.62658
ltoes -2.99897
17
root -26.3693 17.101 25.9434 -188.553 69.6717 530.491
lowerback 13.1932 -3.06866 -7.98635
upperback 4.88066 -4.78223 -2.7122
thorax -1.78085 -2.27778 2.30302
lowerneck 0.847385 5.45438 -3.88887
upperneck 6.98427 7.61569 -2.53809
head 1.99622 3.69261 -0.036935
rclavicle 5.40694e-014 -2.70347e-014
rhumerus -39.1866 -8.54371 -85.2923
rradius 22.3511
rwrist 19.7329
rhand -18.2084 18.3
rfingers 7.12502
rthumb 8.06923 -11.5259
lclavicle 5.40694e-014 -2.70347e-014
lhumerus -39.1735 4.89239 90.553
lradius 69.5203
lwrist 17.5874
lhand -15.7876 -8.03141
lfingers 7.12502
lthumb 10.405 21.6911
rfemur -23.58 11.0346 15.3525
rtibia 49.1608
rfoot -23.7476 17.0626
rtoes -13.1368
lfemur 3.39611 -4.83784 -26.5403
ltibia 30.7374
lfoot -34.5755 -2.09907
ltoes -3.21847
18
root -26.3476 17.0803 25.9224 -189.046 70.1795 529.96
lowerback 13.295 -3.1194 -8.27947
upperback 4.97683 -4.8799 -2.77718
thorax -1.70222 -2.32874 2.41027
lowerneck 1.03651 5.40812 -4.02631
upperneck 6.83837 7.55163 -2.74098
head 1.91967 3.65926 -0.0871191
rclavicle 5.24792e-014 1.90833e-014
rhumerus -39.7173 -9.16744 -84.9752
rradius 22.2517
rwrist 20.2489
rhand -17.9602 18.5729
rfingers 7.12502
rthumb 8.30874 -11.2437
lclavicle 5.24792e-014 1.90833e-014
lhumerus -39.5005 5.21675 90.7511
lradius 70.686
lwrist 17.3918
lhand -15.7682 -7.84948
lfingers 7.12502
lthumb 10.4238 21.8721
rfemur -24.1914 10.1892 15.3581
rtibia 50.1597
rfoot -23.7659 16.2792
rtoes -13.1779
lfemur 3.62019 -4.77352 -26.8535
ltibia 30.6253
lfoot -34.8514 -1.62932
ltoes -3.2274
19
root -26.3211 17.0584 25.9007 -189.542 70.7239 529.39
lowerback 13.3106 -3.15562 -8.59505
upperback 5.06563 -4.95413 -2.8408
thorax -1.58398 -2.37086 2.52253
lowerneck 1.26135 5.36561 -4.14367
upperneck 6.67152 7.48751 -2.93755
head 1.83089 3.6279 -0.139817
rclavicle 3.69739e-014 2.14687e-014
rhumerus -40.2532 -9.73587 -84.6996
rradius 22.17
rwrist 20.645
rhand -17.6478 18.8803
rfingers 7.12502
rthumb 8.61019 -10.9241
lclavicle 3.69739e-014 2.14687e-014
lhumerus -39.6756 5.63758 90.9148
lradius 71.7377
lwrist 17.1432
lhand -15.5594 -7.743
lfingers 7.12502
lthumb 10.6251 21.9684
rfemur -24.8305 9.34919 15.4061
rtibia 51.17
rfoot -23.7215 15.4307
rtoes -12.9657
lfemur 3.80923 -4.57873 -27.1268
ltibia 30.551
lfoot -35.1443 -1.26003
ltoes -3.21121
20
root -26.2934 17.0362 25.8778 -189.874 71.2583 528.983
lowerback 13.3104 -3.21389 -8.83352
upperback 5.15285 -5.04728 -2.87062
thorax -1.4605 -2.42365 2.62874
lowerneck 1.44528 5.33769 -4.31614
upperneck 6.51864 7.44884 -3.18557
head 1.75423 3.60717 -0.197362
rclavicle 5.96354e-015 2.22639e-014
rhumerus -40.7587 -10.0638 -84.4898
rradius 22.0424
rwrist 20.7917
rhand -17.359 19.2652
rfingers 7.12502
rthumb 8.88889 -10.5275
lclavicle 5.96354e-015 2.22639e-014
lhumerus -39.7771 6.15588 91.0852
lradius 72.8109
lwrist 16.8248
lhand -15.3462 -7.54603
lfingers 7.12502
lthumb 10.8308 22.1547
rfemur -25.4826 8.44139 15.5614
rtibia 52.164
rfoot -23.7273 14.4741
rtoes -13.0173
lfemur 3.94253 -4.42103 -27.3461
ltibia 30.5207
lfoot -35.4522 -0.881008
ltoes -3.27783
